<svg width="531" height="256" viewBox="0 0 531 256" fill="none" xmlns="http://www.w3.org/2000/svg">
<path d="M62.5569 3.36719C41.9407 21.115 19.6929 38.7251 10.5526 65.5366C-3.39595 106.452 3.1414 161.462 31.6931 194.737C69.5518 238.858 139.037 245.08 192.567 249.393C241.353 253.324 279.422 253.167 328.471 251.161C391.609 248.578 453.318 239.439 516.01 232.746" stroke="#FFCC51" stroke-width="5" stroke-linecap="round"/>
<path d="M496.802 222C504.259 225.467 511.865 229.619 520.253 231.676C522.309 232.18 525.891 232.671 527.486 231.018C530.127 228.282 521.769 230.116 521.139 230.329C508.197 234.715 499.243 244.459 491 253" stroke="#FFCC51" stroke-width="5" stroke-linecap="round"/>
</svg>
