<svg width="282" height="153" viewBox="0 0 282 153" fill="none" xmlns="http://www.w3.org/2000/svg">
<path d="M279 13.8066C275.183 12.0779 271.291 11.0761 267.383 10.2693C249.968 6.6736 232.368 5.15879 214.858 4.1441C186.578 2.50531 158.041 2.18698 129.813 6.18537C105.439 9.63775 81.7747 18.7633 59.8529 38.8801C40.9279 56.2467 20.846 80.311 15.6008 119.655C14.3791 128.818 15.2348 136.125 16.2688 144.955L16.2741 145" stroke="#FFCC51" stroke-width="5" stroke-linecap="round"/>
<path d="M2.51675 124.799C5.03472 128.682 9.58844 135.688 12.2493 139.848C13.3562 141.579 15.0102 143.775 15.8106 145.786C16.1696 146.688 16.2465 147.595 16.3039 148.547C16.3397 149.142 16.3755 149.736 16.4113 150.33C16.4373 150.761 16.7288 149.515 16.8602 149.1C18.4273 144.147 20.1846 139.338 22.761 134.743C25.94 129.073 29.9747 124.12 34.5352 119.4C36.2121 117.664 37.6293 115.981 38.933 114" stroke="#FFCC51" stroke-width="5" stroke-linecap="round"/>
</svg>
