<svg width="70" height="98" viewBox="0 0 70 98" fill="none" xmlns="http://www.w3.org/2000/svg">
<path d="M67.2496 51.5283C65.0212 48.629 61.6584 46.6376 57.1616 45.5552C62.888 42.6163 65.4046 37.6283 64.7137 30.5903C64.4827 28.0381 63.7817 25.8263 62.609 23.9514C61.4355 22.0762 59.852 20.5686 57.8523 19.4282C55.8542 18.2863 53.6811 17.417 51.338 16.8177C48.9942 16.2185 46.3034 15.7833 43.2673 15.5129V0.896973H34.3907V15.1069C32.8536 15.1069 30.5095 15.1454 27.3585 15.2228V0.896973H18.4807V15.5129C17.2121 15.5517 15.3485 15.5714 12.8891 15.5714L0.668457 15.5129V25.0251H7.06668C9.98746 25.0251 11.6976 26.34 12.1971 28.9689V45.6152C12.582 45.6152 12.8891 45.6351 13.1198 45.6737H12.1971V68.9886C11.89 70.9601 10.7757 71.9468 8.85396 71.9468H2.45614L0.668861 82.561H12.1981C12.9284 82.561 13.9846 82.5707 15.3687 82.5882C16.7519 82.6077 17.7891 82.6174 18.4811 82.6174V97.4071H27.3603V82.7913C28.974 82.8309 31.3181 82.8498 34.3925 82.8498V97.4071H43.2694V82.6174C46.4213 82.463 49.2169 82.1746 51.6562 81.7478C54.0966 81.321 56.4319 80.655 58.6603 79.7458C60.8886 78.8377 62.7522 77.706 64.2507 76.3526C65.7501 75.0005 66.9884 73.279 67.97 71.1907C68.9485 69.1023 69.5738 66.6857 69.8419 63.9398C70.3437 58.5665 69.4785 54.4289 67.2496 51.5283ZM27.5311 25.6613C27.8003 25.6613 28.5592 25.6516 29.8082 25.6321C31.0578 25.6122 32.095 25.5931 32.9212 25.5736C33.7476 25.5545 34.8622 25.6028 36.2654 25.7188C37.6681 25.8348 38.8496 25.9898 39.8101 26.1828C40.7706 26.3758 41.8284 26.6949 42.9802 27.1396C44.1341 27.5839 45.0558 28.1255 45.7468 28.7634C46.4391 29.4012 47.025 30.2136 47.5046 31.1997C47.9855 32.1856 48.2258 33.3165 48.2258 34.5922C48.2258 35.675 48.0532 36.6613 47.7077 37.5511C47.3628 38.4402 46.8427 39.1848 46.1518 39.784C45.4607 40.3835 44.7483 40.906 44.018 41.3503C43.2885 41.7946 42.3557 42.1525 41.2224 42.4229C40.0893 42.6937 39.0998 42.9064 38.2548 43.0608C37.4092 43.2156 36.3527 43.3222 35.0843 43.3799C33.8157 43.4376 32.8546 43.477 32.2016 43.4961C31.5481 43.5152 30.6548 43.5152 29.5207 43.4961C28.3864 43.477 27.7244 43.4669 27.5317 43.4669V25.6611H27.5311V25.6613ZM51.7721 65.1584C51.406 66.0482 50.936 66.822 50.3599 67.4798C49.7829 68.1359 49.0235 68.7165 48.0824 69.2185C47.1415 69.7219 46.2279 70.1272 45.3448 70.4366C44.4604 70.7472 43.3935 71.0164 42.1458 71.2492C40.8952 71.4814 39.8006 71.6447 38.8581 71.742C37.917 71.8389 36.7934 71.9159 35.4863 71.9744C34.1801 72.0313 33.1611 72.0607 32.4312 72.0607C31.7009 72.0607 30.7784 72.0502 29.6639 72.0313C28.5488 72.0132 27.8384 72.0034 27.5307 72.0034V52.3988C27.8378 52.3988 28.7507 52.3799 30.269 52.3405C31.7875 52.3015 33.0262 52.2834 33.9871 52.2834C34.9478 52.2834 36.2741 52.3405 37.9657 52.4573C39.6556 52.5725 41.0777 52.7458 42.2316 52.9778C43.3841 53.2102 44.6417 53.5673 46.007 54.0512C47.3709 54.5343 48.4763 55.1238 49.3221 55.8198C50.1677 56.517 50.8782 57.405 51.4545 58.4879C52.0321 59.5703 52.3202 60.8079 52.3202 62.2002C52.32 63.284 52.1377 64.2685 51.7721 65.1584Z" fill="#F7F7F7"/>
</svg>
